<?xml version="1.0" encoding="UTF-8" standalone="no"?>
<!-- Created with Inkscape (http://www.inkscape.org/) -->

<svg
   xmlns:dc="http://purl.org/dc/elements/1.1/"
   xmlns:cc="http://creativecommons.org/ns#"
   xmlns:rdf="http://www.w3.org/1999/02/22-rdf-syntax-ns#"
   xmlns:svg="http://www.w3.org/2000/svg"
   xmlns="http://www.w3.org/2000/svg"
   xmlns:sodipodi="http://sodipodi.sourceforge.net/DTD/sodipodi-0.dtd"
   xmlns:inkscape="http://www.inkscape.org/namespaces/inkscape"
   width="744.09448819"
   height="1052.3622047"
   id="svg2"
   version="1.1"
   inkscape:version="0.48.5 r10040"
   sodipodi:docname="New document 1">
  <defs
     id="defs4" />
  <sodipodi:namedview
     id="base"
     pagecolor="#ffffff"
     bordercolor="#666666"
     borderopacity="1.0"
     inkscape:pageopacity="0.0"
     inkscape:pageshadow="2"
     inkscape:zoom="0.35"
     inkscape:cx="383.57143"
     inkscape:cy="748.57143"
     inkscape:document-units="px"
     inkscape:current-layer="layer1"
     showgrid="false"
     inkscape:window-width="1920"
     inkscape:window-height="1058"
     inkscape:window-x="1912"
     inkscape:window-y="-8"
     inkscape:window-maximized="1" />
  <metadata
     id="metadata7">
    <rdf:RDF>
      <cc:Work
         rdf:about="">
        <dc:format>image/svg+xml</dc:format>
        <dc:type
           rdf:resource="http://purl.org/dc/dcmitype/StillImage" />
        <dc:title></dc:title>
      </cc:Work>
    </rdf:RDF>
  </metadata>
  <g
     inkscape:label="Layer 1"
     inkscape:groupmode="layer"
     id="layer1">
    <path
       sodipodi:type="arc"
       style="fill:#800000;stroke:#c5c5c5;stroke-width:5.30000019;stroke-miterlimit:4;stroke-opacity:1;stroke-dasharray:none"
       id="path2987"
       sodipodi:cx="355.71429"
       sodipodi:cy="455.21933"
       sodipodi:rx="244.28572"
       sodipodi:ry="217.14285"
       d="m 600.00002,455.21933 a 244.28572,217.14285 0 1 1 -488.57145,0 244.28572,217.14285 0 1 1 488.57145,0 z" />
    <path
       sodipodi:type="arc"
       style="fill:#800000;stroke:#800000;stroke-width:5.30000019;stroke-miterlimit:4;stroke-opacity:1;stroke-dasharray:none"
       id="path3007"
       sodipodi:cx="122.85714"
       sodipodi:cy="435.21933"
       sodipodi:rx="60"
       sodipodi:ry="65.714287"
       d="m 182.85714,435.21933 a 60,65.714287 0 1 1 -120,0 60,65.714287 0 1 1 120,0 z"
       transform="translate(25.714286,-2.8571429)" />
    <path
       transform="translate(425.71429,-5.7142901)"
       sodipodi:type="arc"
       style="fill:#800000;stroke:#800000;stroke-width:5.30000019;stroke-miterlimit:4;stroke-opacity:1;stroke-dasharray:none"
       id="path3007-1"
       sodipodi:cx="122.85714"
       sodipodi:cy="435.21933"
       sodipodi:rx="60"
       sodipodi:ry="65.714287"
       d="m 182.85714,435.21933 a 60,65.714287 0 1 1 -120,0 60,65.714287 0 1 1 120,0 z" />
    <path
       sodipodi:type="arc"
       style="fill:#ffffff;stroke:#ffffff;stroke-width:5.30000019;stroke-miterlimit:4;stroke-opacity:1;stroke-dasharray:none"
       id="path3027"
       sodipodi:cx="128.57143"
       sodipodi:cy="433.79074"
       sodipodi:rx="34.285713"
       sodipodi:ry="35.714287"
       d="m 162.85714,433.79074 a 34.285713,35.714287 0 1 1 -68.571427,0 34.285713,35.714287 0 1 1 68.571427,0 z"
       transform="translate(25.714286,-2.8571429)" />
    <path
       transform="translate(425.71429,-4.2857011)"
       sodipodi:type="arc"
       style="fill:#ffffff;stroke:#ffffff;stroke-width:5.30000019;stroke-miterlimit:4;stroke-opacity:1;stroke-dasharray:none"
       id="path3027-7"
       sodipodi:cx="128.57143"
       sodipodi:cy="433.79074"
       sodipodi:rx="34.285713"
       sodipodi:ry="35.714287"
       d="m 162.85714,433.79074 a 34.285713,35.714287 0 1 1 -68.571427,0 34.285713,35.714287 0 1 1 68.571427,0 z" />
    <path
       sodipodi:type="arc"
       style="fill:#000000;stroke:#ffffff;stroke-width:5.30000019;stroke-miterlimit:4;stroke-opacity:1;stroke-dasharray:none"
       id="path3053"
       sodipodi:cx="594.28571"
       sodipodi:cy="449.50504"
       sodipodi:rx="22.857143"
       sodipodi:ry="25.714285"
       d="m 617.14285,449.50504 a 22.857143,25.714285 0 1 1 -45.71429,0 22.857143,25.714285 0 1 1 45.71429,0 z"
       transform="translate(-37.142857,-22.857143)" />
    <path
       sodipodi:type="arc"
       style="fill:#000000;stroke:#ffffff;stroke-width:5.30000019;stroke-miterlimit:4;stroke-opacity:1;stroke-dasharray:none"
       id="path3053-4"
       sodipodi:cx="594.28571"
       sodipodi:cy="449.50504"
       sodipodi:rx="22.857143"
       sodipodi:ry="25.714285"
       d="m 617.14285,449.50504 a 22.857143,25.714285 0 1 1 -45.71429,0 22.857143,25.714285 0 1 1 45.71429,0 z"
       transform="translate(-437.14284,-19.999996)" />
    <path
       sodipodi:type="arc"
       style="fill:#ffffff;stroke:#ffffff;stroke-width:5.30000019;stroke-miterlimit:4;stroke-opacity:1;stroke-dasharray:none"
       id="path3073"
       sodipodi:cx="134.28572"
       sodipodi:cy="428.07648"
       sodipodi:rx="2.8571429"
       sodipodi:ry="1.4285715"
       d="m 137.14286,428.07648 a 2.8571429,1.4285715 0 1 1 -5.71428,0 2.8571429,1.4285715 0 1 1 5.71428,0 z"
       transform="translate(25.714286,-2.8571429)" />
    <path
       transform="translate(425.71428,-7.1428658)"
       sodipodi:type="arc"
       style="fill:#ffffff;stroke:#ffffff;stroke-width:5.30000019;stroke-miterlimit:4;stroke-opacity:1;stroke-dasharray:none"
       id="path3073-9"
       sodipodi:cx="134.28572"
       sodipodi:cy="428.07648"
       sodipodi:rx="2.8571429"
       sodipodi:ry="1.4285715"
       d="m 137.14286,428.07648 a 2.8571429,1.4285715 0 1 1 -5.71428,0 2.8571429,1.4285715 0 1 1 5.71428,0 z" />
    <path
       style="fill:#ff0000;stroke:#ff0000;stroke-width:5.30000019;stroke-miterlimit:4;stroke-opacity:1"
       d="m 234.28571,329.50504 c 0,4.73386 -52.40899,28.57142 -57.14286,28.57142 -4.73387,0 -8.57143,-3.83756 -8.57143,-8.57142 0,-4.73387 3.83756,-8.57143 8.57143,-8.57143 4.73387,0 57.14286,-16.16244 57.14286,-11.42857 z"
       id="path3113"
       inkscape:connector-curvature="0"
       sodipodi:nodetypes="sssss" />
    <path
       style="fill:#ff0000;stroke:#ff0000;stroke-width:5.30000019;stroke-miterlimit:4;stroke-opacity:1"
       d="m 508.57144,532.36221 c 0,26.82526 -57.94627,88.57143 -140,88.57143 -82.05373,0 -159.99999,-70.3176 -159.99999,-97.14286 0,-26.82526 80.8034,34.28572 162.85713,34.28572 82.05373,0 137.14286,-52.53955 137.14286,-25.71429 z"
       id="path3137"
       inkscape:connector-curvature="0"
       sodipodi:nodetypes="sssss" />
    <path
       style="fill:#ffffff;stroke:#f9f9f9;stroke-width:5.30000019;stroke-miterlimit:4;stroke-opacity:1"
       d="m 478.57139,544.33735 c 0,26.82526 -26.51763,48.57143 -108.57143,48.57143 -82.0537,0 -128.57143,-27.46046 -128.57143,-54.28572 0,-26.82526 49.37483,14.28572 131.42863,14.28572 82.0537,0 105.71423,-35.39669 105.71423,-8.57143 z"
       id="path3137-8"
       inkscape:connector-curvature="0"
       sodipodi:nodetypes="sssss" />
    <path
       style="fill:#ff0000;stroke:#ff0000;stroke-width:5.30000019;stroke-miterlimit:4;stroke-opacity:1"
       d="m 185.71429,550.93359 c 0,7.10081 -15.35024,12.85715 -34.28572,12.85715 -18.93547,0 -97.142853,59.95795 -97.142853,52.85714 0,-7.1008 78.207383,-78.57143 97.142853,-78.57143 18.93548,0 34.28572,5.75634 34.28572,12.85714 z"
       id="path3179"
       inkscape:connector-curvature="0"
       sodipodi:nodetypes="sssss" />
    <path
       style="fill:#ff0000;stroke:#ff0000;stroke-width:5.30000019;stroke-miterlimit:4;stroke-opacity:1"
       d="m 534.28571,551.35572 c 0,7.10081 15.35024,12.85715 34.28571,12.85715 18.93547,0 97.14286,59.95795 97.14286,52.85714 0,-7.1008 -78.20739,-78.57143 -97.14286,-78.57143 -18.93547,0 -34.28571,5.75634 -34.28571,12.85714 z"
       id="path3179-2"
       inkscape:connector-curvature="0"
       sodipodi:nodetypes="sssss" />
    <path
       style="fill:#ff0000;stroke:#ff0000;stroke-width:5.30000019;stroke-miterlimit:4;stroke-opacity:1"
       d="m 478.57143,329.93926 c 0,4.73386 52.40899,28.57142 57.14286,28.57142 4.73387,0 8.57143,-3.83756 8.57143,-8.57142 0,-4.73387 -3.83756,-8.57143 -8.57143,-8.57143 -4.73387,0 -57.14286,-16.16244 -57.14286,-11.42857 z"
       id="path3113-4"
       inkscape:connector-curvature="0"
       sodipodi:nodetypes="sssss" />
    <path
       style="fill:#0000ff;stroke:#0000ff;stroke-width:5.30000019;stroke-miterlimit:4;stroke-opacity:1"
       d="m 508.57144,196.6479 c 144.53674,170.22747 -18.13705,125.97834 -150,118.57143 -185.50559,-10.42009 -255.60963,-0.98416 -150,-118.57143 43.75715,-48.71983 67.15729,-178.571423 150,-178.571423 82.84271,0 107.61529,128.653023 150,178.571423 z"
       id="path3242"
       inkscape:connector-curvature="0"
       sodipodi:nodetypes="sssss" />
    <path
       sodipodi:type="star"
       style="fill:#ffff00;stroke:#0000ff;stroke-width:5.30000019;stroke-miterlimit:4;stroke-opacity:1;stroke-dasharray:none"
       id="path3247"
       sodipodi:sides="5"
       sodipodi:cx="254.28571"
       sodipodi:cy="258.07647"
       sodipodi:r1="56.279187"
       sodipodi:r2="28.139594"
       sodipodi:arg1="0.41822433"
       sodipodi:arg2="1.0465429"
       inkscape:flatsided="false"
       inkscape:rounded="0"
       inkscape:randomized="0"
       d="m 305.71428,280.93362 -37.34283,1.50324 -19.93188,31.61434 -12.96923,-35.05061 -36.22631,-9.18697 29.32739,-23.16572 -2.45721,-37.29219 31.09456,20.73341 34.70767,-13.86087 -10.10989,35.97966 z"
       inkscape:transform-center-x="1.8065542"
       inkscape:transform-center-y="3.6269754" />
    <path
       sodipodi:type="star"
       style="fill:#ffff00;stroke:#0000ff;stroke-width:5.30000019;stroke-miterlimit:4;stroke-opacity:1;stroke-dasharray:none"
       id="path3249"
       sodipodi:sides="5"
       sodipodi:cx="320"
       sodipodi:cy="178.07647"
       sodipodi:r1="50.869982"
       sodipodi:r2="25.434992"
       sodipodi:arg1="0.66596924"
       sodipodi:arg2="1.2942878"
       inkscape:flatsided="false"
       inkscape:rounded="0"
       inkscape:randomized="0"
       d="M 360,209.50505 326.94371,202.54531 302.47033,225.8307 298.87449,192.24163 269.16607,176.16164 300,162.36219 l 6.11257,-33.22337 22.65226,25.06055 33.4862,-4.45319 -16.83406,29.28772 z"
       inkscape:transform-center-x="4.2914516"
       inkscape:transform-center-y="-0.59171758" />
    <path
       sodipodi:type="star"
       style="fill:#ffff00;stroke:#0000ff;stroke-width:5.30000019;stroke-miterlimit:4;stroke-opacity:1;stroke-dasharray:none"
       id="path3251"
       sodipodi:sides="5"
       sodipodi:cx="408.57143"
       sodipodi:cy="269.50504"
       sodipodi:r1="42.185209"
       sodipodi:r2="21.092605"
       sodipodi:arg1="0.49394137"
       sodipodi:arg2="1.1222599"
       inkscape:flatsided="false"
       inkscape:rounded="0"
       inkscape:randomized="0"
       d="m 445.7143,289.50503 -27.99611,-0.99381 -16.6901,22.49911 -7.7061,-26.93299 -26.55545,-8.92062 23.23347,-15.65169 0.27793,-28.01236 22.06518,17.25972 26.72723,-8.39197 -9.59645,26.31877 z"
       inkscape:transform-center-x="2.3310253"
       inkscape:transform-center-y="1.7464663" />
    <path
       sodipodi:type="star"
       style="fill:#ffff00;stroke:#0000ff;stroke-width:5.30000019;stroke-miterlimit:4;stroke-opacity:1;stroke-dasharray:none"
       id="path3253"
       sodipodi:sides="5"
       sodipodi:cx="351.42857"
       sodipodi:cy="72.362183"
       sodipodi:r1="42.474482"
       sodipodi:r2="21.237242"
       sodipodi:arg1="0.73781506"
       sodipodi:arg2="1.3661336"
       inkscape:flatsided="false"
       inkscape:rounded="0"
       inkscape:randomized="0"
       d="m 382.85713,100.93361 -27.11238,-7.777416 -21.77727,17.925396 -0.98143,-28.188762 -23.77761,-15.172166 26.50583,-9.644194 7.0819,-27.302309 17.36293,22.228321 28.15447,-1.701589 -15.77495,23.382052 z"
       inkscape:transform-center-x="2.6675534"
       inkscape:transform-center-y="-1.4343087" />
    <path
       sodipodi:type="star"
       style="fill:#ffff00;stroke:#0000ff;stroke-width:5.30000019;stroke-miterlimit:4;stroke-opacity:1;stroke-dasharray:none"
       id="path3255"
       sodipodi:sides="5"
       sodipodi:cx="425.71429"
       sodipodi:cy="149.50504"
       sodipodi:r1="42.857143"
       sodipodi:r2="21.428572"
       sodipodi:arg1="0.92729522"
       sodipodi:arg2="1.5556137"
       inkscape:flatsided="false"
       inkscape:rounded="0"
       inkscape:randomized="0"
       d="m 451.42858,183.79075 -25.38896,-12.85961 -24.98683,13.6245 4.3846,-28.12017 -20.67903,-19.55368 28.09879,-4.51961 12.20649,-25.70935 12.9814,25.3269 28.22306,3.66443 -20.07584,20.1725 z"
       inkscape:transform-center-x="0.20106405"
       inkscape:transform-center-y="-3.900798" />
    <path
       sodipodi:type="star"
       style="fill:#ffff00;stroke:#0000ff;stroke-width:5.30000019;stroke-miterlimit:4;stroke-opacity:1;stroke-dasharray:none"
       id="path3257"
       sodipodi:sides="5"
       sodipodi:cx="488.57143"
       sodipodi:cy="252.36218"
       sodipodi:r1="42.857143"
       sodipodi:r2="21.428572"
       sodipodi:arg1="0.92729522"
       sodipodi:arg2="1.5556137"
       inkscape:flatsided="false"
       inkscape:rounded="0"
       inkscape:randomized="0"
       d="m 514.28573,286.6479 -25.38896,-12.85962 -24.98683,13.62451 4.3846,-28.12017 -20.67903,-19.55369 28.09879,-4.5196 12.20648,-25.70935 12.98141,25.3269 28.22306,3.66443 -20.07584,20.1725 z"
       inkscape:transform-center-x="0.20106405"
       inkscape:transform-center-y="-3.900798" />
    <path
       style="fill:#008080;stroke:#0000ff;stroke-width:5.30000019;stroke-miterlimit:4;stroke-opacity:1"
       d="m 185.71428,609.50503 c 97.04213,44.67948 194.62851,89.99382 348.57144,0 l 114.28571,417.14277 -534.28572,-2.8571 z"
       id="rect3261"
       inkscape:connector-curvature="0"
       sodipodi:nodetypes="ccccc" />
    <path
       style="fill:#ffff00;stroke:#ffff00;stroke-width:5.30000019;stroke-miterlimit:4;stroke-opacity:1"
       d="m 240.00001,640.93364 237.14286,2.85714 -71.42857,380.00002 -25.71429,0 z"
       id="rect3264"
       inkscape:connector-curvature="0"
       sodipodi:nodetypes="ccccc" />
  </g>
</svg>
